<svg xmlns="http://www.w3.org/2000/svg" viewBox="0 0 24 24">
  <path fill="#fff" d="M20.229 15.793a6.977 6.977 0 0 0 .992-3.336c0-5.146-5.826-8.489-11.866-6.725-3.85 1.122-6.798 4.229-7.338 8.359-.396 3.032.767 5.521 2.715 7.252 2.256 2.003 5.798 3.077 9.051 2.054a8.731 8.731 0 0 0 4.245-2.646"/>
  <path fill="#fff" d="M11.845 21.136C8.634 21.132 6.12 18.615 6.12 15.401v-.283l.001-.042h9.723a.815.815 0 0 0 .797-.855.818.818 0 0 0-.797-.816H6.12v-1.88c0-.787.146-1.479.436-2.086h9.429c.475-.001.86-.389.86-.866 0-.478-.385-.866-.86-.866H7.731a6.104 6.104 0 0 1-.033-.171 5.103 5.103 0 0 1 2.928-5.204 5.963 5.963 0 0 1 6.07.338 8.039 8.039 0 0 0-2.514.814c-.476.237-.636.821-.399 1.297.236.476.82.636 1.296.399 2.756-1.375 6.095-.819 8.021 1.527a6.165 6.165 0 0 1 1.337 3.618c-.007 3.213-2.461 5.859-5.672 5.859h-7.32Z"/>
</svg> 